<svg width="463" height="451" viewBox="0 0 463 451" fill="none" xmlns="http://www.w3.org/2000/svg">
<path fill-rule="evenodd" clip-rule="evenodd" d="M57 75C57 33.5786 90.5786 0 132 0H330C371.421 0 405 33.5786 405 75V273C405 314.421 371.421 348 330 348H132C90.5786 348 57 314.421 57 273V75ZM163.866 37.4488C163.866 29.8821 170 23.748 177.567 23.748H284.433C292 23.748 298.134 29.8821 298.134 37.4488C298.134 45.0156 292 51.1496 284.433 51.1496H177.567C170 51.1496 163.866 45.0156 163.866 37.4488ZM112.26 221.039C97.3786 221.039 85.3149 233.103 85.3149 247.984C85.3149 262.865 97.3786 274.929 112.26 274.929C127.141 274.929 139.205 262.865 139.205 247.984C139.205 233.103 127.141 221.039 112.26 221.039ZM321.882 247.984C321.882 233.103 333.945 221.039 348.827 221.039C363.708 221.039 375.772 233.103 375.772 247.984C375.772 262.865 363.708 274.929 348.827 274.929C333.945 274.929 321.882 262.865 321.882 247.984ZM114.449 78.5511C103.403 78.5511 94.4487 87.5054 94.4487 98.5511V173.638C94.4487 184.683 103.403 193.638 114.449 193.638H346.638C357.683 193.638 366.638 184.683 366.638 173.638V98.5511C366.638 87.5055 357.683 78.5511 346.638 78.5511H114.449Z" fill="#902D41"/>
<path d="M75 451L143.979 348H319.021L388 451H348.69L298.995 379.122H164.746L114.31 451H75Z" fill="#902D41"/>
</svg>
