<svg width="880" height="226" viewBox="0 0 880 226" fill="none" xmlns="http://www.w3.org/2000/svg">
<g clip-path="url(#clip0_44_14)">
<path fill-rule="evenodd" clip-rule="evenodd" d="M0 37.5C0 16.7893 16.7893 0 37.5 0H136.5C157.211 0 174 16.7893 174 37.5V136.5C174 157.211 157.211 174 136.5 174H37.5C16.7893 174 0 157.211 0 136.5V37.5ZM53.4332 18.7244C53.4332 14.941 56.5002 11.874 60.2836 11.874H113.717C117.5 11.874 120.567 14.941 120.567 18.7244C120.567 22.5078 117.5 25.5748 113.717 25.5748H60.2836C56.5002 25.5748 53.4332 22.5078 53.4332 18.7244ZM27.6299 110.52C20.1893 110.52 14.1575 116.551 14.1575 123.992C14.1575 131.433 20.1893 137.465 27.6299 137.465C35.0705 137.465 41.1023 131.433 41.1023 123.992C41.1023 116.551 35.0705 110.52 27.6299 110.52ZM132.441 123.992C132.441 116.551 138.473 110.52 145.913 110.52C153.354 110.52 159.386 116.551 159.386 123.992C159.386 131.433 153.354 137.465 145.913 137.465C138.473 137.465 132.441 131.433 132.441 123.992ZM28.7244 39.2756C23.2015 39.2756 18.7244 43.7528 18.7244 49.2756V86.8189C18.7244 92.3418 23.2015 96.8189 28.7244 96.8189H144.819C150.342 96.8189 154.819 92.3418 154.819 86.8189V49.2756C154.819 43.7528 150.342 39.2756 144.819 39.2756H28.7244Z" fill="#902D41"/>
<path d="M9 225.5L43.4893 174H131.011L165.5 225.5H145.845L120.998 189.561H53.8732L28.6552 225.5H9Z" fill="#902D41"/>
<path d="M265.935 157V76.2727H287.641V90.358H288.482C289.953 85.3475 292.423 81.5634 295.892 79.0057C299.361 76.4129 303.355 75.1165 307.875 75.1165C308.996 75.1165 310.205 75.1865 311.501 75.3267C312.798 75.4669 313.937 75.6596 314.918 75.9048V95.7713C313.866 95.456 312.412 95.1757 310.555 94.9304C308.698 94.6851 306.999 94.5625 305.457 94.5625C302.164 94.5625 299.221 95.2808 296.628 96.7173C294.07 98.1188 292.038 100.081 290.531 102.604C289.06 105.126 288.324 108.035 288.324 111.328V157H265.935ZM350.161 158.524C345.01 158.524 340.42 157.631 336.391 155.844C332.361 154.022 329.173 151.341 326.825 147.803C324.513 144.229 323.357 139.779 323.357 134.453C323.357 129.968 324.18 126.202 325.827 123.153C327.474 120.105 329.716 117.652 332.554 115.795C335.392 113.938 338.616 112.537 342.225 111.591C345.868 110.645 349.688 109.979 353.682 109.594C358.377 109.103 362.161 108.648 365.034 108.227C367.907 107.772 369.992 107.106 371.288 106.23C372.585 105.354 373.233 104.058 373.233 102.341V102.026C373.233 98.697 372.182 96.1217 370.08 94.2997C368.012 92.4777 365.069 91.5668 361.25 91.5668C357.221 91.5668 354.015 92.4602 351.632 94.2472C349.25 95.9991 347.673 98.2064 346.902 100.869L326.195 99.1875C327.246 94.2822 329.313 90.0426 332.396 86.4688C335.48 82.8598 339.457 80.0918 344.327 78.1648C349.232 76.2026 354.908 75.2216 361.355 75.2216C365.84 75.2216 370.132 75.7472 374.232 76.7983C378.366 77.8494 382.028 79.4787 385.216 81.6861C388.44 83.8935 390.98 86.7315 392.837 90.2003C394.694 93.634 395.622 97.7509 395.622 102.551V157H374.389V145.805H373.759C372.462 148.328 370.728 150.553 368.556 152.48C366.383 154.372 363.773 155.861 360.725 156.947C357.676 157.999 354.155 158.524 350.161 158.524ZM356.573 143.072C359.866 143.072 362.774 142.424 365.297 141.128C367.82 139.796 369.799 138.009 371.236 135.767C372.672 133.525 373.391 130.984 373.391 128.146V119.58C372.69 120.035 371.726 120.455 370.5 120.841C369.309 121.191 367.96 121.524 366.453 121.839C364.947 122.12 363.44 122.383 361.933 122.628C360.427 122.838 359.06 123.031 357.834 123.206C355.206 123.591 352.911 124.205 350.949 125.045C348.987 125.886 347.463 127.025 346.377 128.462C345.29 129.863 344.747 131.615 344.747 133.717C344.747 136.766 345.851 139.096 348.058 140.707C350.301 142.284 353.139 143.072 356.573 143.072ZM415.952 157V76.2727H438.342V157H415.952ZM427.199 65.8665C423.871 65.8665 421.015 64.7628 418.633 62.5554C416.285 60.313 415.111 57.6326 415.111 54.5142C415.111 51.4309 416.285 48.7855 418.633 46.5781C421.015 44.3357 423.871 43.2145 427.199 43.2145C430.528 43.2145 433.366 44.3357 435.714 46.5781C438.096 48.7855 439.288 51.4309 439.288 54.5142C439.288 57.6326 438.096 60.313 435.714 62.5554C433.366 64.7628 430.528 65.8665 427.199 65.8665ZM481.626 49.3636V157H459.237V49.3636H481.626ZM545.46 76.2727V93.0909H496.845V76.2727H545.46ZM507.882 56.9318H530.271V132.193C530.271 134.26 530.586 135.872 531.217 137.028C531.847 138.15 532.723 138.938 533.845 139.393C535.001 139.849 536.332 140.077 537.839 140.077C538.89 140.077 539.941 139.989 540.992 139.814C542.043 139.604 542.849 139.446 543.41 139.341L546.931 156.001C545.81 156.352 544.233 156.755 542.201 157.21C540.169 157.701 537.699 157.999 534.791 158.104C529.395 158.314 524.665 157.596 520.6 155.949C516.571 154.302 513.435 151.744 511.193 148.276C508.95 144.807 507.847 140.427 507.882 135.136V56.9318ZM563.004 157V76.2727H584.71V90.358H585.551C587.023 85.3475 589.493 81.5634 592.962 79.0057C596.43 76.4129 600.425 75.1165 604.945 75.1165C606.066 75.1165 607.275 75.1865 608.571 75.3267C609.867 75.4669 611.006 75.6596 611.987 75.9048V95.7713C610.936 95.456 609.482 95.1757 607.625 94.9304C605.768 94.6851 604.069 94.5625 602.527 94.5625C599.233 94.5625 596.29 95.2808 593.697 96.7173C591.14 98.1188 589.107 100.081 587.601 102.604C586.129 105.126 585.393 108.035 585.393 111.328V157H563.004ZM647.23 158.524C642.08 158.524 637.49 157.631 633.46 155.844C629.431 154.022 626.242 151.341 623.895 147.803C621.582 144.229 620.426 139.779 620.426 134.453C620.426 129.968 621.25 126.202 622.896 123.153C624.543 120.105 626.786 117.652 629.624 115.795C632.462 113.938 635.685 112.537 639.294 111.591C642.938 110.645 646.757 109.979 650.751 109.594C655.447 109.103 659.231 108.648 662.104 108.227C664.977 107.772 667.062 107.106 668.358 106.23C669.654 105.354 670.303 104.058 670.303 102.341V102.026C670.303 98.697 669.251 96.1217 667.149 94.2997C665.082 92.4777 662.139 91.5668 658.32 91.5668C654.29 91.5668 651.084 92.4602 648.702 94.2472C646.319 95.9991 644.742 98.2064 643.972 100.869L623.264 99.1875C624.315 94.2822 626.383 90.0426 629.466 86.4688C632.549 82.8598 636.526 80.0918 641.396 78.1648C646.302 76.2026 651.978 75.2216 658.425 75.2216C662.91 75.2216 667.202 75.7472 671.301 76.7983C675.436 77.8494 679.097 79.4787 682.286 81.6861C685.509 83.8935 688.049 86.7315 689.906 90.2003C691.763 93.634 692.692 97.7509 692.692 102.551V157H671.459V145.805H670.828C669.532 148.328 667.797 150.553 665.625 152.48C663.453 154.372 660.842 155.861 657.794 156.947C654.746 157.999 651.225 158.524 647.23 158.524ZM653.642 143.072C656.936 143.072 659.844 142.424 662.367 141.128C664.889 139.796 666.869 138.009 668.305 135.767C669.742 133.525 670.46 130.984 670.46 128.146V119.58C669.76 120.035 668.796 120.455 667.57 120.841C666.378 121.191 665.029 121.524 663.523 121.839C662.016 122.12 660.51 122.383 659.003 122.628C657.496 122.838 656.13 123.031 654.903 123.206C652.276 123.591 649.981 124.205 648.019 125.045C646.056 125.886 644.532 127.025 643.446 128.462C642.36 129.863 641.817 131.615 641.817 133.717C641.817 136.766 642.921 139.096 645.128 140.707C647.37 142.284 650.208 143.072 653.642 143.072ZM749.496 158.577C741.227 158.577 734.115 156.825 728.158 153.321C722.237 149.782 717.682 144.877 714.493 138.605C711.34 132.333 709.763 125.116 709.763 116.952C709.763 108.683 711.358 101.43 714.546 95.1932C717.769 88.9214 722.342 84.0336 728.263 80.5298C734.185 76.991 741.227 75.2216 749.391 75.2216C756.434 75.2216 762.6 76.5005 767.891 79.0582C773.182 81.616 777.369 85.2074 780.452 89.8324C783.536 94.4574 785.235 99.8883 785.55 106.125H764.422C763.827 102.096 762.25 98.8546 759.692 96.402C757.17 93.9143 753.858 92.6705 749.759 92.6705C746.29 92.6705 743.26 93.6165 740.667 95.5085C738.109 97.3655 736.112 100.081 734.675 103.655C733.239 107.229 732.52 111.556 732.52 116.636C732.52 121.787 733.221 126.167 734.623 129.776C736.059 133.384 738.074 136.135 740.667 138.027C743.26 139.919 746.29 140.865 749.759 140.865C752.317 140.865 754.612 140.339 756.644 139.288C758.711 138.237 760.411 136.713 761.742 134.716C763.108 132.684 764.002 130.249 764.422 127.411H785.55C785.2 133.577 783.518 139.008 780.505 143.703C777.527 148.363 773.41 152.007 768.154 154.635C762.898 157.263 756.679 158.577 749.496 158.577ZM823.132 133.77L823.185 106.913H826.443L852.301 76.2727H878.001L843.261 116.847H837.953L823.132 133.77ZM802.845 157V49.3636H825.234V157H802.845ZM853.3 157L829.544 121.839L844.47 106.02L879.526 157H853.3Z" fill="black"/>
</g>
<defs>
<clipPath id="clip0_44_14">
<rect width="880" height="226" fill="white"/>
</clipPath>
</defs>
</svg>
